<svg xmlns="http://www.w3.org/2000/svg" width="1280" height="640" viewBox="0 0 1280 640" role="img" aria-labelledby="social-title social-desc">
  <title id="social-title">Business Agent Kit social preview</title>
  <desc id="social-desc">Business Agent Kit is an open-source workflow, runtime scaffold, and evidence system for taking business AI agents from opportunity to operation.</desc>
  <defs>
    <linearGradient id="social-bg" x1="0" y1="0" x2="1" y2="1">
      <stop offset="0" stop-color="#070B14"/>
      <stop offset="0.58" stop-color="#0A161C"/>
      <stop offset="1" stop-color="#0D211A"/>
    </linearGradient>
    <linearGradient id="social-accent" x1="0" y1="0" x2="1" y2="0">
      <stop offset="0" stop-color="#2DD4BF"/>
      <stop offset="1" stop-color="#A3E635"/>
    </linearGradient>
    <radialGradient id="social-glow" cx="84%" cy="22%" r="58%">
      <stop offset="0" stop-color="#2DD4BF" stop-opacity="0.25"/>
      <stop offset="1" stop-color="#2DD4BF" stop-opacity="0"/>
    </radialGradient>
    <pattern id="social-grid" width="44" height="44" patternUnits="userSpaceOnUse">
      <path d="M44 0H0V44" fill="none" stroke="#A7B0C0" stroke-opacity="0.055"/>
    </pattern>
  </defs>
  <rect width="1280" height="640" fill="url(#social-bg)"/>
  <rect width="1280" height="640" fill="url(#social-glow)"/>
  <rect width="1280" height="640" fill="url(#social-grid)"/>
  <g font-family="-apple-system, BlinkMacSystemFont, 'Segoe UI', sans-serif">
    <g transform="translate(72 68)">
      <rect width="58" height="58" rx="18" fill="#102822" stroke="#2DD4BF" stroke-opacity="0.68"/>
      <path d="M17 19h14c6.6 0 12 5.4 12 12s-5.4 12-12 12H17V19Z" fill="none" stroke="#A3E635" stroke-width="4"/>
      <circle cx="30" cy="31" r="4.5" fill="#2DD4BF"/>
      <path d="M35 31h10" stroke="#2DD4BF" stroke-width="4" stroke-linecap="round"/>
      <text x="78" y="24" fill="#A3E635" font-size="28" font-weight="720" letter-spacing="2.2">OPEN-SOURCE AI DELIVERY KIT</text>
      <text x="78" y="58" fill="#A7B0C0" font-size="28">bluecoast1379 / business-agent</text>
    </g>

    <text x="72" y="246" fill="#F8FAFC" font-size="72" font-weight="760" letter-spacing="-2.4">Business Agent Kit</text>
    <text x="72" y="304" fill="#D7DEE9" font-size="30" font-weight="560">从业务机会到可运行 Agent 网关</text>
    <text x="72" y="351" fill="#A7B0C0" font-size="28">Workflow · Runtime Scaffold · Guardrails · Evals</text>

    <g transform="translate(72 423)">
      <rect width="1136" height="124" rx="24" fill="#0D1722" stroke="#2DD4BF" stroke-opacity="0.28"/>
      <rect x="28" y="30" width="300" height="64" rx="20" fill="#133029"/>
      <text x="178" y="72" text-anchor="middle" fill="#2DD4BF" font-size="28" font-weight="680">Business workflow</text>
      <path d="M346 62h54" stroke="url(#social-accent)" stroke-width="3"/>
      <rect x="418" y="30" width="300" height="64" rx="20" fill="#133029"/>
      <text x="568" y="72" text-anchor="middle" fill="#2DD4BF" font-size="28" font-weight="680">Runnable gateway</text>
      <path d="M736 62h54" stroke="url(#social-accent)" stroke-width="3"/>
      <rect x="808" y="30" width="300" height="64" rx="20" fill="#26381A"/>
      <text x="958" y="72" text-anchor="middle" fill="#A3E635" font-size="28" font-weight="680">Verifiable evidence</text>
    </g>
  </g>
</svg>
